<svg width="56" height="42" viewBox="0 0 56 42" fill="none" xmlns="http://www.w3.org/2000/svg">
<path d="M27.51 39.81L18.4099 34.57C15.0699 32.65 13 29.06 13 25.21V7.24001L14.21 7.34C14.76 7.38 15.2399 7.41 15.6899 7.41C19.7699 7.41 23.6099 6.07 26.8099 3.55L27.51 3L28.21 3.55C31.41 6.08 35.25 7.41 39.33 7.41C39.78 7.41 40.2699 7.39 40.8099 7.34L42.02 7.24001V25.21C42.02 29.06 39.95 32.65 36.61 34.57L27.51 39.81ZM15.24 9.64V25.21C15.24 28.26 16.8799 31.1 19.5299 32.62L27.51 37.22L35.49 32.62C38.13 31.1 39.7799 28.26 39.7799 25.21V9.64C39.6299 9.64 39.47 9.64 39.33 9.64C35.04 9.64 30.97 8.31999 27.51 5.81999C24.05 8.31999 19.9899 9.64 15.6899 9.64C15.5399 9.64 15.39 9.64 15.24 9.64Z" fill="white"/>
<path d="M27.0699 12.22H27.95C28.69 12.22 29.2799 12.82 29.2799 13.55V20.18C29.2799 20.92 28.68 21.51 27.95 21.51H27.0699C26.3299 21.51 25.74 20.91 25.74 20.18V13.55C25.74 12.81 26.3399 12.22 27.0699 12.22Z" fill="white"/>
<path d="M27.51 30.2C29.0675 30.2 30.33 28.9374 30.33 27.38C30.33 25.8226 29.0675 24.56 27.51 24.56C25.9526 24.56 24.6899 25.8226 24.6899 27.38C24.6899 28.9374 25.9526 30.2 27.51 30.2Z" fill="white"/>
</svg>
