<svg width="23" height="19" viewBox="0 0 23 19" fill="none" xmlns="http://www.w3.org/2000/svg">
<path d="M22.3114 2.6147C21.5038 2.97919 20.6461 3.22042 19.7669 3.33035C20.6936 2.77276 21.3851 1.89633 21.7119 0.865335C20.8429 1.38379 19.8921 1.75081 18.9001 1.95074C18.4845 1.5008 17.9789 1.14333 17.4162 0.90154C16.8534 0.659748 16.2461 0.539044 15.6336 0.547269C14.4606 0.551269 13.3371 1.02043 12.5096 1.85181C11.6821 2.6832 11.2182 3.80889 11.2196 4.98191C11.22 5.32275 11.2581 5.66251 11.3334 5.99495C9.57089 5.90566 7.8468 5.44732 6.27268 4.64957C4.69855 3.85183 3.30946 2.73246 2.19531 1.3639C1.62855 2.33753 1.45522 3.49093 1.71079 4.58813C1.96636 5.68534 2.6315 6.64343 3.57015 7.26642C2.8665 7.25836 2.17512 7.08108 1.55441 6.74956V6.78057C1.55366 7.80447 1.90698 8.79714 2.5545 9.5903C3.20201 10.3835 4.10387 10.9283 5.10721 11.1325C4.45888 11.3091 3.77844 11.3331 3.11929 11.2025C3.40006 12.0837 3.94992 12.8548 4.69159 13.4073C5.43326 13.9599 6.32944 14.2661 7.25416 14.283C5.68664 15.5238 3.74365 16.1946 1.74445 16.185C1.39208 16.1849 1.04001 16.1642 0.690063 16.123C2.71724 17.4277 5.07719 18.1211 7.48793 18.1204C9.14826 18.1306 10.7941 17.811 12.33 17.1803C13.8659 16.5496 15.2613 15.6203 16.4354 14.4462C17.6094 13.2722 18.5388 11.8767 19.1695 10.3408C19.8002 8.80492 20.1197 7.1591 20.1096 5.49876C20.1096 5.30236 20.1096 5.11629 20.0993 4.91988C20.9702 4.29188 21.7198 3.51079 22.3114 2.6147Z" fill="#A6ACB6"/>
</svg>
